<svg width="200" height="51" viewBox="0 0 200 51" fill="none" xmlns="http://www.w3.org/2000/svg">
<g clip-path="url(#clip0_0_33)">
<path d="M-0.239999 39.78C-2.88 39.78 -5.30667 39.1667 -7.52 37.94C-9.70667 36.7133 -11.4533 35.0067 -12.76 32.82C-14.04 30.6067 -14.68 28.1267 -14.68 25.38C-14.68 22.6333 -14.04 20.1667 -12.76 17.98C-11.4533 15.7933 -9.70667 14.0867 -7.52 12.86C-5.30667 11.6333 -2.88 11.02 -0.239999 11.02C2.4 11.02 4.81333 11.6333 7 12.86C9.21334 14.0867 10.9467 15.7933 12.2 17.98C13.48 20.1667 14.12 22.6333 14.12 25.38C14.12 28.1267 13.48 30.6067 12.2 32.82C10.92 35.0067 9.18667 36.7133 7 37.94C4.81333 39.1667 2.4 39.78 -0.239999 39.78ZM-0.239999 33.54C2 33.54 3.78667 32.7933 5.12 31.3C6.48 29.8067 7.16 27.8333 7.16 25.38C7.16 22.9 6.48 20.9267 5.12 19.46C3.78667 17.9667 2 17.22 -0.239999 17.22C-2.50667 17.22 -4.32 17.9533 -5.68 19.42C-7.01333 20.8867 -7.68 22.8733 -7.68 25.38C-7.68 27.86 -7.01333 29.8467 -5.68 31.34C-4.32 32.8067 -2.50667 33.54 -0.239999 33.54ZM36.2053 11.42V16.9H24.7653V22.82H33.3253V28.14H24.7653V39.5H17.9253V11.42H36.2053ZM58.0803 11.42V16.9H46.6403V22.82H55.2003V28.14H46.6403V39.5H39.8003V11.42H58.0803Z" fill="black"/>
<path d="M71.8353 39.78C69.782 39.78 67.942 39.4467 66.3153 38.78C64.6886 38.1133 63.382 37.1267 62.3953 35.82C61.4353 34.5133 60.9286 32.94 60.8753 31.1H68.1553C68.262 32.14 68.622 32.94 69.2353 33.5C69.8486 34.0333 70.6486 34.3 71.6353 34.3C72.6486 34.3 73.4486 34.0733 74.0353 33.62C74.622 33.14 74.9153 32.4867 74.9153 31.66C74.9153 30.9667 74.6753 30.3933 74.1953 29.94C73.742 29.4867 73.1686 29.1133 72.4753 28.82C71.8086 28.5267 70.8486 28.1933 69.5953 27.82C67.782 27.26 66.302 26.7 65.1553 26.14C64.0086 25.58 63.022 24.7533 62.1953 23.66C61.3686 22.5667 60.9553 21.14 60.9553 19.38C60.9553 16.7667 61.902 14.7267 63.7953 13.26C65.6886 11.7667 68.1553 11.02 71.1953 11.02C74.2886 11.02 76.782 11.7667 78.6753 13.26C80.5686 14.7267 81.582 16.78 81.7153 19.42H74.3153C74.262 18.5133 73.9286 17.8067 73.3153 17.3C72.702 16.7667 71.9153 16.5 70.9553 16.5C70.1286 16.5 69.462 16.7267 68.9553 17.18C68.4486 17.6067 68.1953 18.2333 68.1953 19.06C68.1953 19.9667 68.622 20.6733 69.4753 21.18C70.3286 21.6867 71.662 22.2333 73.4753 22.82C75.2886 23.4333 76.7553 24.02 77.8753 24.58C79.022 25.14 80.0086 25.9533 80.8353 27.02C81.662 28.0867 82.0753 29.46 82.0753 31.14C82.0753 32.74 81.662 34.1933 80.8353 35.5C80.0353 36.8067 78.862 37.8467 77.3153 38.62C75.7686 39.3933 73.942 39.78 71.8353 39.78ZM100.005 16.94C102.565 16.94 104.618 17.7933 106.165 19.5C107.711 21.18 108.485 23.5 108.485 26.46V39.5H101.685V27.38C101.685 25.8867 101.298 24.7267 100.525 23.9C99.7514 23.0733 98.7114 22.66 97.4047 22.66C96.098 22.66 95.058 23.0733 94.2847 23.9C93.5114 24.7267 93.1247 25.8867 93.1247 27.38V39.5H86.2847V9.9H93.1247V20.18C93.818 19.1933 94.7647 18.4067 95.9647 17.82C97.1647 17.2333 98.5114 16.94 100.005 16.94ZM123.398 39.82C121.211 39.82 119.238 39.3533 117.478 38.42C115.744 37.4867 114.371 36.1533 113.358 34.42C112.371 32.6867 111.878 30.66 111.878 28.34C111.878 26.0467 112.384 24.0333 113.398 22.3C114.411 20.54 115.798 19.1933 117.558 18.26C119.318 17.3267 121.291 16.86 123.478 16.86C125.664 16.86 127.638 17.3267 129.398 18.26C131.158 19.1933 132.544 20.54 133.558 22.3C134.571 24.0333 135.078 26.0467 135.078 28.34C135.078 30.6333 134.558 32.66 133.518 34.42C132.504 36.1533 131.104 37.4867 129.318 38.42C127.558 39.3533 125.584 39.82 123.398 39.82ZM123.398 33.9C124.704 33.9 125.811 33.42 126.718 32.46C127.651 31.5 128.118 30.1267 128.118 28.34C128.118 26.5533 127.664 25.18 126.758 24.22C125.878 23.26 124.784 22.78 123.478 22.78C122.144 22.78 121.038 23.26 120.158 24.22C119.278 25.1533 118.838 26.5267 118.838 28.34C118.838 30.1267 119.264 31.5 120.118 32.46C120.998 33.42 122.091 33.9 123.398 33.9ZM145.547 20.9C146.347 19.6733 147.347 18.7133 148.547 18.02C149.747 17.3 151.08 16.94 152.547 16.94V24.18H150.667C148.96 24.18 147.68 24.5533 146.827 25.3C145.973 26.02 145.547 27.3 145.547 29.14V39.5H138.707V17.18H145.547V20.9ZM176.856 27.98C176.856 28.62 176.816 29.2867 176.736 29.98H161.256C161.363 31.3667 161.803 32.4333 162.576 33.18C163.376 33.9 164.349 34.26 165.496 34.26C167.203 34.26 168.389 33.54 169.056 32.1H176.336C175.963 33.5667 175.283 34.8867 174.296 36.06C173.336 37.2333 172.123 38.1533 170.656 38.82C169.189 39.4867 167.549 39.82 165.736 39.82C163.549 39.82 161.603 39.3533 159.896 38.42C158.189 37.4867 156.856 36.1533 155.896 34.42C154.936 32.6867 154.456 30.66 154.456 28.34C154.456 26.02 154.923 23.9933 155.856 22.26C156.816 20.5267 158.149 19.1933 159.856 18.26C161.563 17.3267 163.523 16.86 165.736 16.86C167.896 16.86 169.816 17.3133 171.496 18.22C173.176 19.1267 174.483 20.42 175.416 22.1C176.376 23.78 176.856 25.74 176.856 27.98ZM169.856 26.18C169.856 25.0067 169.456 24.0733 168.656 23.38C167.856 22.6867 166.856 22.34 165.656 22.34C164.509 22.34 163.536 22.6733 162.736 23.34C161.963 24.0067 161.483 24.9533 161.296 26.18H169.856ZM183.664 39.82C182.464 39.82 181.478 39.4733 180.704 38.78C179.958 38.06 179.584 37.18 179.584 36.14C179.584 35.0733 179.958 34.18 180.704 33.46C181.478 32.74 182.464 32.38 183.664 32.38C184.838 32.38 185.798 32.74 186.544 33.46C187.318 34.18 187.704 35.0733 187.704 36.14C187.704 37.18 187.318 38.06 186.544 38.78C185.798 39.4733 184.838 39.82 183.664 39.82Z" fill="#F16A23"/>
</g>
<defs>
<clipPath id="clip0_0_33">
<rect width="200" height="50" fill="white" transform="translate(0 0.5)"/>
</clipPath>
</defs>
</svg>
